<svg id="visual" viewBox="0 0 900 600" width="900" height="600" xmlns="http://www.w3.org/2000/svg" xmlns:xlink="http://www.w3.org/1999/xlink" version="1.1"><g transform="translate(462.19796932636075 331.75245407019463)"><path d="M135.4 -212.2C178.9 -182.8 220 -151 232.5 -110.1C245 -69.3 228.9 -19.3 206.4 18.8C183.9 56.9 155.1 83.1 126.7 102C98.2 120.9 70.2 132.4 37.9 152.7C5.5 173 -31.2 202.1 -57.6 195C-84.1 187.8 -100.2 144.3 -132.8 112.1C-165.4 79.9 -214.3 58.9 -240.4 21.3C-266.5 -16.3 -269.7 -70.5 -240.9 -100.3C-212.2 -130.2 -151.5 -135.8 -106 -164.3C-60.6 -192.9 -30.3 -244.4 7.8 -256.6C46 -268.8 91.9 -241.7 135.4 -212.2" fill="#045d4a"></path></g></svg>