<svg id="visual" viewBox="0 0 900 600" width="900" height="600" xmlns="http://www.w3.org/2000/svg" xmlns:xlink="http://www.w3.org/1999/xlink" version="1.1"><g transform="translate(483.0094806584387 293.2094476366418)"><path d="M91 -126.3C115.7 -87.8 131.7 -56.9 155.8 -13.7C179.9 29.6 212.1 85.3 196.2 113.6C180.3 141.9 116.3 142.8 58.9 165.1C1.6 187.3 -49.1 230.9 -98.3 230.2C-147.4 229.6 -194.9 184.8 -227.5 130.4C-260.1 76 -277.8 11.9 -258.4 -36.4C-239 -84.8 -182.5 -117.5 -133.2 -151.6C-84 -185.8 -42 -221.4 -4.4 -216.1C33.2 -210.9 66.4 -164.8 91 -126.3" fill="#07830b"></path></g></svg>